<svg xmlns="http://www.w3.org/2000/svg" viewBox="0 0 54.05 26.03"><defs><style>.cls-1{fill:#0155b7;}</style></defs><g id="Layer_2" data-name="Layer 2"><g id="Layer_1-2" data-name="Layer 1"><path class="cls-1" d="M40.36,13.64v5.45A3.24,3.24,0,0,1,38,22.29a.31.31,0,0,0-.25.36c0,.93,0,1.86,0,2.79,0,.08.05.2,0,.25s-.16-.06-.23-.12c-.3-.21-.58-.44-.88-.66a.47.47,0,0,1-.22-.43c0-.62,0-1.23,0-1.84a.3.3,0,0,0-.23-.34,3.27,3.27,0,0,1-2.4-3.23q0-5.43,0-10.84a3.32,3.32,0,0,1,6.63-.15C40.38,9.93,40.36,11.78,40.36,13.64Zm-1.38,0V8.23a1.79,1.79,0,0,0,0-.46,1.93,1.93,0,0,0-3.83.39c0,3.66,0,7.32,0,11a1.79,1.79,0,0,0,.33,1.05A1.93,1.93,0,0,0,39,19.1Z"></path><path class="cls-1" d="M5,18.14c0-.4,0-.81,0-1.21s.09-.36.33-.37L6,16.48c.34,0,.35,0,.35.34v2.35a1.75,1.75,0,0,0,.38,1.12A1.93,1.93,0,0,0,8.87,21a1.88,1.88,0,0,0,1.3-1.78c0-.57,0-1.13,0-1.7a2,2,0,0,0-.49-1.33c-1.29-1.53-2.58-3-3.86-4.59A3.36,3.36,0,0,1,5,9.2a8.47,8.47,0,0,1,.09-1.88,3.31,3.31,0,0,1,6.51.85c0,.62,0,1.24,0,1.86,0,.19-.06.29-.26.3s-.56.06-.84.1-.29,0-.29-.26c0-.68,0-1.35,0-2A1.89,1.89,0,0,0,8.75,6.29a1.92,1.92,0,0,0-2.18.92,4,4,0,0,0,.21,3.33l1.16,1.38c.91,1.09,1.84,2.17,2.75,3.27a3.55,3.55,0,0,1,.87,2.42,15.4,15.4,0,0,1-.06,2.15A3.3,3.3,0,0,1,5,19.18Z"></path><path class="cls-1" d="M2.24,2.41c0,.85,0,1.7,0,2.55,0,1.52,0,3-.07,4.57,0,2.16-.07,4.32-.11,6.48,0,1.08,0,2.15-.06,3.23s0,2.15,0,3.23c0,0,0,.07,0,.11-.07.67-.12.55.56.64l4.62.53,4.48.51,4.59.53,5,.57c1.76.2,3.53.41,5.29.67L25.09,26l-2.4-.14-4.21-.26-3-.18-4.39-.26L8,24.94l-4.26-.26L.57,24.5l-.38,0c-.13,0-.2-.07-.19-.23.14-1.28.27-2.56.39-3.83s.23-2.34.35-3.51l.42-4.09c.12-1.16.23-2.34.35-3.5L1.93,5.2l.24-2.45A.57.57,0,0,1,2.24,2.41Z"></path><path class="cls-1" d="M46.76,25.41c0-.73,0-1.46,0-2.18,0-1.27,0-2.54.07-3.81,0-1.08,0-2.17.05-3.25s0-2.14,0-3.21,0-2.19.06-3.28,0-2.08,0-3.12c0-.54,0-1.08.05-1.61,0-.22-.05-.32-.3-.34L39.4,3.75,32.47,3l-6.93-.8-3-.35V1.76l1.34.06L26,2l4.45.27,3.14.17,4.18.26,3.06.18,4.28.26,3.2.18h.24c.45,0,.45.05.4.49-.14,1.36-.27,2.71-.4,4.06L48.16,12c-.14,1.35-.27,2.7-.41,4.05s-.27,2.71-.41,4.06c-.12,1.17-.23,2.34-.35,3.51l-.18,1.82Z"></path><path class="cls-1" d="M14.46,12.18a4.78,4.78,0,0,1,.58-.43,1.93,1.93,0,0,1,2.49.65A2.62,2.62,0,0,1,18,14c0,2.62,0,5.23,0,7.85,0,.34,0,.36-.35.37-.86,0-.86,0-.86-.85V13.88a1.09,1.09,0,0,0-.68-1.06,1.11,1.11,0,0,0-1.25.19,1.22,1.22,0,0,0-.4,1v8c0,.16-.07.24-.23.24h-.71c-.18,0-.25-.09-.24-.26a1.2,1.2,0,0,0,0-.19V8.17c0-.34-.07-.45.4-.46a2.22,2.22,0,0,0,.46-.06c.26-.06.32,0,.32.28v4.25Z"></path><path class="cls-1" d="M28.07,12.36l.13-.12a2,2,0,0,1,3.38.67,2.65,2.65,0,0,1,.19,1q0,4,0,7.94c0,.38,0,.38-.38.39-.79,0-.79,0-.79-.8V14a1.16,1.16,0,0,0-1.18-1.24,1.12,1.12,0,0,0-1.15,1.14c0,.93,0,1.86,0,2.79v5.18c0,.36,0,.37-.37.37h-.57c-.19,0-.27-.09-.26-.27v-.19q0-4.83,0-9.66c0-.15-.08-.35.1-.42a1.13,1.13,0,0,1,.68,0c.08,0,.09.1.11.17Z"></path><path class="cls-1" d="M19.75,16.9V12c0-.16-.06-.36.22-.38.51,0,.61,0,.68.29v0c.1.42.1.42.42.15a2.9,2.9,0,0,1,1.77-.55.14.14,0,0,1,.16.15v.08c0,.29.11.64,0,.86s-.55.08-.83.1a1.26,1.26,0,0,0-1.2,1.36c0,.94,0,1.88,0,2.82v4.93c0,.36,0,.37-.37.37h-.49c-.23,0-.32-.08-.32-.32,0-1,0-1.93,0-2.9Z"></path><path class="cls-1" d="M24.09,16.91V12c0-.4,0-.41.42-.41.18,0,.36,0,.54,0a.21.21,0,0,1,.24.24v9.86c0,.48,0,.48-.49.48-.79,0-.71.1-.71-.72C24.08,20,24.09,18.43,24.09,16.91Z"></path><path class="cls-1" d="M43,21.11a1.08,1.08,0,0,1-1.08,1.08A1.1,1.1,0,1,1,43,21.11Z"></path><path class="cls-1" d="M50.48,1.75A1.78,1.78,0,0,1,52.3,0a1.81,1.81,0,0,1,1.75,1.79,1.83,1.83,0,0,1-1.82,1.78A1.81,1.81,0,0,1,50.48,1.75ZM52.27.29a1.5,1.5,0,1,0,0,3,1.54,1.54,0,0,0,1.5-1.51A1.51,1.51,0,0,0,52.27.29Z"></path><path class="cls-1" d="M24.09,9.7V9.18c0-.19.08-.26.26-.26H25c.17,0,.25.06.25.24v1.09c0,.16-.08.23-.24.23h-.74c-.15,0-.22-.06-.22-.21V9.7Z"></path><path class="cls-1" d="M51.57,1.8c0-.28,0-.56,0-.85s.07-.23.23-.23h.63a.52.52,0,0,1,.55.37.64.64,0,0,1-.18.72c-.14.1-.15.17-.06.3a4.88,4.88,0,0,1,.31.55c0,.07.14.17,0,.23a.22.22,0,0,1-.31-.09l-.21-.41a3.53,3.53,0,0,0-.21-.32A.34.34,0,0,0,52,2c-.14,0-.12.17-.12.27s0,.29,0,.44,0,.19-.14.2-.14-.1-.15-.2Zm.67-.15h0c.2,0,.37,0,.42-.26a.27.27,0,0,0-.18-.33.81.81,0,0,0-.63,0s0,.05,0,.07C51.76,1.48,51.88,1.65,52.24,1.65Z"></path></g></g></svg>