<svg width="343" height="96" viewBox="0 0 343 96" fill="none" xmlns="http://www.w3.org/2000/svg">
<path fill-rule="evenodd" clip-rule="evenodd" d="M121.947 43.1454H122.095C124.147 39.9958 127.225 38.2344 131.039 38.2344C132.502 38.2344 133.969 38.6009 135.288 39.1189L134.044 48.6435C132.797 47.7676 131.331 47.3216 129.792 47.3216C122.681 47.3216 121.947 53.6265 121.947 59.1976V75.3956H111.688V39.4058H121.947V43.1454Z" fill="#0A0B09"/>
<path fill-rule="evenodd" clip-rule="evenodd" d="M163.822 57.3898C163.822 52.5517 160.527 47.3471 155.25 47.3471C149.973 47.3471 146.746 52.5517 146.746 57.3898C146.746 62.2289 149.973 67.5054 155.25 67.5054C160.527 67.5054 163.822 62.2289 163.822 57.3898ZM172.91 75.3917H162.792V72.0925H162.647C160.446 74.9542 156.635 76.565 152.897 76.565C142.342 76.565 136.332 66.9655 136.332 57.2164C136.332 47.6841 142.414 38.2305 152.75 38.2305C156.487 38.2305 160.301 39.847 162.792 42.7731V39.4019H172.91V75.3917Z" fill="#0A0B09"/>
<path fill-rule="evenodd" clip-rule="evenodd" d="M186.408 42.7051H186.556C188.679 39.4853 192.271 38.2344 195.936 38.2344C205.614 38.2344 208.398 45.0507 208.398 53.4106V75.3956H198.138V56.3377C198.138 52.0157 198.356 46.4447 192.565 46.4447C186.484 46.4447 186.408 53.2601 186.408 57.5887V75.3956H176.148V39.4058H186.408V42.7051Z" fill="#0A0B09"/>
<path fill-rule="evenodd" clip-rule="evenodd" d="M238.631 50.4049C236.43 48.206 234.234 46.8831 231.08 46.8831C225.29 46.8831 221.99 52.3112 221.99 57.5887C221.99 63.2317 225.581 67.9202 231.447 67.9202C234.234 67.9202 236.797 66.531 238.631 64.476V74.3748C235.845 75.9136 232.914 76.5689 229.762 76.5689C219.132 76.5689 211.582 67.8482 211.582 57.5167C211.582 46.8111 219.426 38.2344 230.273 38.2344C233.133 38.2344 236.139 38.9673 238.631 40.5062V50.4049Z" fill="#0A0B09"/>
<path fill-rule="evenodd" clip-rule="evenodd" d="M269.273 57.3898C269.273 52.5517 265.978 47.3471 260.7 47.3471C255.422 47.3471 252.195 52.5517 252.195 57.3898C252.195 62.2289 255.422 67.5054 260.7 67.5054C265.978 67.5054 269.273 62.2289 269.273 57.3898ZM278.356 75.3917H268.241V72.0925H268.093C265.894 74.9542 262.083 76.565 258.346 76.565C247.79 76.565 241.781 66.9655 241.781 57.2164C241.781 47.6841 247.863 38.2305 258.198 38.2305C261.936 38.2305 265.749 39.847 268.241 42.7731V39.4019H278.356V75.3917Z" fill="#0A0B09"/>
<path fill-rule="evenodd" clip-rule="evenodd" d="M291.806 43.1454H291.952C294.005 39.9958 297.083 38.2344 300.896 38.2344C302.36 38.2344 303.826 38.6009 305.146 39.1189L303.902 48.6435C302.654 47.7676 301.187 47.3216 299.65 47.3216C292.538 47.3216 291.806 53.6265 291.806 59.1976V75.3956H281.547V39.4058H291.806V43.1454Z" fill="#0A0B09"/>
<path fill-rule="evenodd" clip-rule="evenodd" d="M333.69 57.3862C333.69 52.548 330.463 47.3435 325.187 47.3435C319.91 47.3435 316.683 52.548 316.683 57.3862C316.683 62.2252 319.91 67.5018 325.187 67.5018C330.463 67.5018 333.69 62.2252 333.69 57.3862ZM332.656 72.0248H332.511C330.384 74.9586 326.573 76.5694 322.835 76.5694C312.281 76.5694 306.27 66.9699 306.27 57.2207C306.27 47.6885 312.353 38.2348 322.686 38.2348C326.427 38.2348 330.24 39.8513 332.511 42.7055H332.656V13.2422H342.919V75.3961H332.656V72.0248Z" fill="#0A0B09"/>
<path fill-rule="evenodd" clip-rule="evenodd" d="M18.0674 7.00391C18.0674 7.00391 15.4261 63.3977 16.3793 68.2001C17.3467 73.0021 19.9808 81.145 39.6636 81.145C59.3459 81.145 84.299 78.0231 84.299 78.0231L80.2679 22.4698C80.2679 22.4698 80.2413 21.6099 79.4607 21.5382C78.9872 21.4829 78.0607 21.4466 77.5488 21.682C76.8624 21.9938 76.823 22.5778 76.823 22.5778L75.1793 70.3556L39.8904 68.2365C39.8904 68.2365 26.3839 67.6713 25.501 60.5153C23.8425 46.9356 18.0674 7.00391 18.0674 7.00391Z" fill="#D8232A"/>
<path fill-rule="evenodd" clip-rule="evenodd" d="M43.51 0.513303C43.51 0.513303 71.3875 8.2002 67.2699 10.6086C60.2694 14.6622 40.6466 11.7782 32.2057 9.25774C30.4632 8.74688 36.2551 9.09496 35.2861 8.2002C33.0144 6.09944 16.8764 8.2002 28.861 14.9196C40.8748 21.6186 76.8774 30.6021 76.8774 14.9196C76.86 3.87123 45.6604 0.294218 43.51 0.513303Z" fill="#D8232A"/>
<mask id="mask0_2525_75499" style="mask-type:alpha" maskUnits="userSpaceOnUse" x="0" y="14" width="69" height="82">
<path fill-rule="evenodd" clip-rule="evenodd" d="M0 14.4023H68.1264V95.0021H0V14.4023Z" fill="white"/>
</mask>
<g mask="url(#mask0_2525_75499)">
<path fill-rule="evenodd" clip-rule="evenodd" d="M27.3346 14.4118C27.3346 14.4118 55.2182 22.0803 51.0991 24.4897C44.1001 28.5622 24.4557 25.6952 16.022 23.1578C14.2949 22.6449 20.0797 22.9914 19.0877 22.0803C16.8328 19.999 0.704029 22.0977 12.6948 28.8166C24.6861 35.5181 60.7086 44.4822 60.7086 28.8166C60.6999 17.7513 29.4993 14.1922 27.3346 14.4118Z" fill="#161715"/>
<path fill-rule="evenodd" clip-rule="evenodd" d="M1.88872 20.9023C1.88872 20.9023 -0.757181 77.2966 0.214366 82.0975C1.17056 86.8816 3.82977 95.0414 23.4977 95.0414C43.1769 95.0414 68.1264 91.9394 68.1264 91.9394L64.0954 36.3488C64.0954 36.3488 64.0708 35.5078 63.2974 35.4351C62.8213 35.3609 61.8892 35.343 61.3839 35.5805C60.6996 35.8733 60.6632 36.4937 60.6632 36.4937L59.0201 84.2341L23.724 82.1334C23.724 82.1334 10.2114 81.5698 9.3294 74.3922C7.67398 60.8453 1.88872 20.9023 1.88872 20.9023Z" fill="#161715"/>
</g>
</svg>
